<?xml version="1.0" standalone="no"?>
<!DOCTYPE svg PUBLIC "-//W3C//DTD SVG 20010904//EN"
 "http://www.w3.org/TR/2001/REC-SVG-20010904/DTD/svg10.dtd">
<svg version="1.0" xmlns="http://www.w3.org/2000/svg"
 width="200.000000pt" height="200.000000pt" viewBox="0 0 200.000000 200.000000"
 preserveAspectRatio="xMidYMid meet">

<g transform="translate(0.000000,200.000000) scale(0.100000,-0.100000)"
fill="#000000" stroke="none">
<path d="M0 1000 l0 -1000 1000 0 1000 0 0 1000 0 1000 -1000 0 -1000 0 0
-1000z m274 106 c9 -19 16 -39 16 -44 0 -7 13 -9 33 -5 41 6 46 0 82 -99 l28
-78 733 0 c483 0 734 -3 734 -10 0 -7 -258 -10 -754 -10 l-755 0 -28 75 c-27
74 -28 74 -41 49 -20 -38 -43 -26 -66 38 -12 31 -24 59 -27 62 -3 3 -25 -47
-50 -112 -29 -77 -49 -117 -59 -117 -8 0 -16 8 -18 18 -4 18 73 232 91 255 5
6 22 12 37 12 22 0 31 -7 44 -34z"/>
</g>
</svg>
